<svg xmlns="http://www.w3.org/2000/svg" xmlns:xlink="http://www.w3.org/1999/xlink" aria-hidden="true" role="img" class="iconify iconify--logos" width="31.88" height="32" preserveAspectRatio="xMidYMid meet" viewBox="0 0 256 257"><defs><linearGradient id="IconifyId1813088fe1fbc01fb466" x1="-.828%" x2="57.636%" y1="7.652%" y2="78.411%"><stop offset="0%" stop-color="#41D1FF"></stop><stop offset="100%" stop-color="#BD34FE"></stop></linearGradient><linearGradient id="IconifyId1813088fe1fbc01fb467" x1="43.376%" x2="50.316%" y1="2.242%" y2="89.03%"><stop offset="0%" stop-color="#FFBD4F"></stop><stop offset="100%" stop-color="#FF980E"></stop></linearGradient></defs><path fill="url(#IconifyId1813088fe1fbc01fb466)" d="M255.153 37.938L134.897 252.976c-2.483 4.44-8.862 4.466-11.382.058L.875 37.958c-2.746-4.814 1.371-10.646 6.827-9.994l83.743 9.968c2.328.281 4.658-.271 6.665-1.443l76.312-44.811c2.277-1.336 5.074-1.336 7.35.001l76.902 44.482c2.227 1.285 4.895 1.749 7.439 1.277l82.599-10.248c5.438-.679 9.574 5.06 6.838 9.868Z"></path><path fill="url(#IconifyId1813088fe1fbc01fb467)" d="M185.432.063L96.44 17.501a9.352 9.352 0 0 0-6.665 1.443L13.463 73.755c-2.277 1.336-2.277 4.52 0 5.856l76.312 44.811c2.007 1.172 4.337 1.724 6.665 1.443l88.993-17.438c5.454-.685 9.574 5.06 6.838 9.868L126.108 236.583c-2.746 4.814-8.865 4.455-11.382-.058L3.497 37.958c-2.746-4.814 1.371-10.646 6.827-9.994l83.743 9.968c2.328.281 4.658-.271 6.665-1.443l76.312-44.811c2.277-1.336 2.277-4.52 0-5.856L100.498 1.127c-2.009-1.286-4.37-1.729-6.665-1.443L.875 37.958c-5.454.685-9.574-5.06-6.838-9.868l83.743-9.968c2.328-.281 4.658.271 6.665 1.443l76.902 44.482c2.227 1.285 4.895 1.749 7.439 1.277l82.599-10.248c5.438-.679 9.574 5.06 6.838 9.868Z"></path></svg>